<svg id="SvgjsSvg1314" width="288" height="288" xmlns="http://www.w3.org/2000/svg" version="1.1" xmlns:xlink="http://www.w3.org/1999/xlink" xmlns:svgjs="http://svgjs.com/svgjs"><defs id="SvgjsDefs1315"></defs><g id="SvgjsG1316"><svg xmlns="http://www.w3.org/2000/svg" enable-background="new 0 0 24 24" viewBox="0 0 24 24" width="288" height="288"><polygon points="1.862 11.247 4.34 11.247 4.34 8.994 4.337 8.994 1.862 8.994" fill="#ffffff" class="color000 svgShape"></polygon><path d="M23.682,11.038c0.056-0.095,0.247-0.501,0.318-0.649l-0.498-0.338v0.001c-0.54-0.368-1.785-0.501-2.741-0.319c-0.124-0.911-0.626-1.704-1.541-2.417l-0.525-0.353l-0.349,0.531c-0.69,1.055-0.877,2.792-0.138,3.938c-0.326,0.178-0.967,0.421-1.815,0.406h-16.3c-0.326,1.927,0.218,4.431,1.65,6.15C3.133,19.654,5.218,20.5,7.944,20.5c5.902,0,10.27-2.75,12.314-7.747C21.06,12.768,22.793,12.757,23.682,11.038z" fill="#ffffff" class="color000 svgShape"></path><rect width="2.478" height="2.253" x="4.787" y="8.994" fill="#ffffff" class="color000 svgShape"></rect><rect width="2.478" height="2.253" x="7.716" y="8.994" fill="#ffffff" class="color000 svgShape"></rect><rect width="2.478" height="2.253" x="13.576" y="8.994" fill="#ffffff" class="color000 svgShape"></rect><rect width="2.478" height="2.28" x="4.787" y="6.258" fill="#ffffff" class="color000 svgShape"></rect><rect width="2.478" height="2.253" x="10.644" y="8.998" fill="#ffffff" class="color000 svgShape"></rect><rect width="2.478" height="2.28" x="10.644" y="6.258" fill="#ffffff" class="color000 svgShape"></rect><rect width="2.478" height="2.303" x="10.644" y="3.5" fill="#ffffff" class="color000 svgShape"></rect><rect width="2.478" height="2.28" x="7.716" y="6.258" fill="#ffffff" class="color000 svgShape"></rect></svg></g></svg>